<?xml version="1.0" encoding="utf-8"?>
<!-- Generator: Adobe Illustrator 24.1.1, SVG Export Plug-In . SVG Version: 6.00 Build 0)  -->
<svg version="1.1" id="Layer_1" xmlns="http://www.w3.org/2000/svg" xmlns:xlink="http://www.w3.org/1999/xlink" x="0px" y="0px"
	 viewBox="0 0 512 512" style="enable-background:new 0 0 512 512;" xml:space="preserve">
<g>
	<polygon points="47.4,331.9 85.3,331.9 85.3,218.1 132.7,218.1 132.7,180.1 0,180.1 0,218.1 47.4,218.1 	"/>
	<polygon points="347.8,331.9 374.5,290.8 401.2,331.9 446.4,331.9 397.1,256 446.4,180.1 401.2,180.1 374.5,221.2 347.8,180.1 
		302.6,180.1 351.9,256 302.6,331.9 	"/>
	<rect x="474.1" y="180.1" width="37.9" height="151.7"/>
	<rect y="94.8" width="512" height="37.9"/>
	<rect y="379.3" width="512" height="37.9"/>
	<path d="M238.6,303.4l9.5,28.4h40l-50.6-151.7h-54.5l-46.8,151.7H176l8.8-28.4H238.6z M210.6,219.4l15.3,46h-29.5L210.6,219.4z"/>
</g>
</svg>
